<?xml version="1.0" standalone="no"?>
<!DOCTYPE svg PUBLIC "-//W3C//DTD SVG 20010904//EN"
 "http://www.w3.org/TR/2001/REC-SVG-20010904/DTD/svg10.dtd">
<svg version="1.0" xmlns="http://www.w3.org/2000/svg"
 width="192.000000pt" height="192.000000pt" viewBox="0 0 192.000000 192.000000"
 preserveAspectRatio="xMidYMid meet">
<metadata>
Created by potrace 1.11, written by Peter Selinger 2001-2013
</metadata>
<g transform="translate(0.000000,192.000000) scale(0.100000,-0.100000)"
fill="#000000" stroke="none">
<path d="M494 1325 c-120 -38 -198 -112 -234 -225 -20 -61 -22 -85 -18 -183 6
-129 29 -195 92 -260 93 -94 263 -129 445 -91 41 8 78 17 83 20 9 6 9 84 -1
128 l-6 29 -132 1 c-130 1 -132 1 -161 29 -38 36 -54 91 -54 188 -1 108 17
178 49 190 13 5 82 9 153 9 145 0 136 -6 146 93 l6 62 -46 13 c-59 16 -269 14
-322 -3z"/>
<path d="M1136 1331 c-3 -5 -38 -107 -77 -227 -39 -121 -93 -286 -120 -369
-27 -82 -49 -153 -49 -158 0 -4 57 -6 127 -5 l127 3 19 78 19 77 109 0 108 0
11 -42 c6 -24 16 -60 21 -80 l10 -38 124 0 c92 0 125 3 125 12 0 7 -16 64 -36
128 -64 207 -125 403 -157 505 -17 55 -35 106 -40 113 -11 14 -312 18 -321 3z
m194 -302 c16 -63 30 -120 30 -126 0 -9 -21 -13 -70 -13 -48 0 -70 4 -70 12 0
14 60 229 67 241 8 14 12 5 43 -114z"/>
</g>
</svg>
